<svg width="400" height="400" viewBox="0 0 400 400" xmlns="http://www.w3.org/2000/svg">
  <defs>
    <linearGradient id="ringGrad2" x1="0%" y1="0%" x2="100%" y2="100%">
      <stop offset="0%" stop-color="#1FA64A"/>
      <stop offset="100%" stop-color="#0E5EA8"/>
    </linearGradient>
    <linearGradient id="personTop" x1="0%" y1="0%" x2="0%" y2="100%">
      <stop offset="0%" stop-color="#28C267"/>
      <stop offset="100%" stop-color="#1FA64A"/>
    </linearGradient>
    <linearGradient id="personLeft" x1="0%" y1="0%" x2="0%" y2="100%">
      <stop offset="0%" stop-color="#1785C9"/>
      <stop offset="100%" stop-color="#0E5EA8"/>
    </linearGradient>
    <linearGradient id="personRight" x1="0%" y1="0%" x2="0%" y2="100%">
      <stop offset="0%" stop-color="#59C98A"/>
      <stop offset="100%" stop-color="#0E8A5E"/>
    </linearGradient>
    <filter id="softShadow2" x="-30%" y="-30%" width="160%" height="160%">
      <feDropShadow dx="0" dy="4" stdDeviation="6" flood-color="#0E5EA8" flood-opacity="0.18"/>
    </filter>
  </defs>

  <rect x="0" y="0" width="400" height="400" fill="#FFFFFF"/>

  <circle cx="200" cy="200" r="176" fill="none" stroke="url(#ringGrad2)" stroke-width="10"/>
  <circle cx="200" cy="200" r="150" fill="#F3F9FC"/>

  <circle cx="200" cy="205" r="92" fill="none" stroke="#CFE3F0" stroke-width="3" stroke-dasharray="6 8"/>

  <g filter="url(#softShadow2)">
    <g transform="translate(140,230)">
      <circle cx="0" cy="-46" r="22" fill="url(#personLeft)"/>
      <path d="M-32 30 C-32 -6 -14 -22 0 -22 C14 -22 32 -6 32 30 Z" fill="url(#personLeft)"/>
    </g>
    <g transform="translate(260,230)">
      <circle cx="0" cy="-46" r="22" fill="url(#personRight)"/>
      <path d="M-32 30 C-32 -6 -14 -22 0 -22 C14 -22 32 -6 32 30 Z" fill="url(#personRight)"/>
    </g>
    <g transform="translate(200,214)">
      <circle cx="0" cy="-58" r="28" fill="url(#personTop)"/>
      <path d="M-40 38 C-40 -6 -18 -28 0 -28 C18 -28 40 -6 40 38 Z" fill="url(#personTop)"/>
    </g>
  </g>

  <circle cx="140" cy="150" r="5" fill="#0E5EA8"/>
  <circle cx="260" cy="150" r="5" fill="#1FA64A"/>
  <circle cx="200" cy="118" r="6" fill="#28C267"/>
  <path d="M140 150 L200 118 L260 150" fill="none" stroke="#CFE3F0" stroke-width="3" stroke-linecap="round"/>
</svg>
